<svg width="485" height="594" viewBox="0 0 485 594" fill="none" xmlns="http://www.w3.org/2000/svg">
<rect y="180.556" width="77.3812" height="77.3812" transform="rotate(-90 0 180.556)" fill="#15DFBB"/>
<mask id="mask0_371_8198" style="mask-type:alpha" maskUnits="userSpaceOnUse" x="2" y="105" width="188" height="188">
<rect x="2.14844" y="292.329" width="187.005" height="187.005" transform="rotate(-90 2.14844 292.329)" fill="#FFBB9C"/>
</mask>
<g mask="url(#mask0_371_8198)">
<rect x="-24.7188" y="250.118" width="8.49632" height="87.0538" transform="rotate(-45 -24.7188 250.118)" fill="#39D0C7"/>
<rect x="-38.6914" y="258.715" width="8.49632" height="87.0538" transform="rotate(-45 -38.6914 258.715)" fill="#39D0C7"/>
<rect x="-28.375" y="222.819" width="8.49632" height="146.026" transform="rotate(-45 -28.375 222.819)" fill="#39D0C7"/>
<rect x="-19.3477" y="208.418" width="8.49632" height="146.026" transform="rotate(-45 -19.3477 208.418)" fill="#39D0C7"/>
<rect x="-31.0898" y="174.104" width="8.49632" height="212.682" transform="rotate(-45 -31.0898 174.104)" fill="#39D0C7"/>
<rect x="-19.3477" y="161.285" width="8.49632" height="212.682" transform="rotate(-45 -19.3477 161.285)" fill="#39D0C7"/>
<rect x="-25.832" y="131.154" width="8.49632" height="267.509" transform="rotate(-45 -25.832 131.154)" fill="#39D0C7"/>
<rect x="-20.168" y="112.024" width="8.49632" height="279.308" transform="rotate(-45 -20.168 112.024)" fill="#39D0C7"/>
<rect x="-7.52344" y="101.277" width="8.49632" height="279.308" transform="rotate(-45 -7.52344 101.277)" fill="#39D0C7"/>
<rect x="2.14844" y="87.3047" width="8.49632" height="279.308" transform="rotate(-45 2.14844 87.3047)" fill="#39D0C7"/>
<rect x="8.59766" y="70.1089" width="8.49632" height="279.308" transform="rotate(-45 8.59766 70.1089)" fill="#39D0C7"/>
<rect x="19.3438" y="55.0625" width="8.49632" height="279.308" transform="rotate(-45 19.3438 55.0625)" fill="#39D0C7"/>
<rect x="29.0156" y="42.1655" width="8.49632" height="279.308" transform="rotate(-45 29.0156 42.1655)" fill="#39D0C7"/>
<rect x="42.9883" y="31.4185" width="8.49632" height="279.308" transform="rotate(-45 42.9883 31.4185)" fill="#39D0C7"/>
<rect x="59.1094" y="21.7461" width="8.49632" height="279.308" transform="rotate(-45 59.1094 21.7461)" fill="#39D0C7"/>
<rect x="72.0078" y="9.92383" width="8.49632" height="279.308" transform="rotate(-45 72.0078 9.92383)" fill="#39D0C7"/>
</g>
<mask id="mask1_371_8198" style="mask-type:alpha" maskUnits="userSpaceOnUse" x="222" y="366" width="188" height="188">
<rect x="222.703" y="553.986" width="187.005" height="187.005" transform="rotate(-90 222.703 553.986)" fill="#FFBB9C"/>
</mask>
<g mask="url(#mask1_371_8198)">
<rect x="195.836" y="511.775" width="8.49632" height="87.0538" transform="rotate(-45 195.836 511.775)" fill="#39D0C7"/>
<rect x="181.863" y="520.373" width="8.49632" height="87.0538" transform="rotate(-45 181.863 520.373)" fill="#39D0C7"/>
<rect x="192.18" y="484.477" width="8.49632" height="146.026" transform="rotate(-45 192.18 484.477)" fill="#39D0C7"/>
<rect x="201.207" y="470.076" width="8.49632" height="146.026" transform="rotate(-45 201.207 470.076)" fill="#39D0C7"/>
<rect x="189.465" y="435.762" width="8.49632" height="212.682" transform="rotate(-45 189.465 435.762)" fill="#39D0C7"/>
<rect x="201.207" y="422.943" width="8.49632" height="212.682" transform="rotate(-45 201.207 422.943)" fill="#39D0C7"/>
<rect x="194.723" y="392.812" width="8.49632" height="267.509" transform="rotate(-45 194.723 392.812)" fill="#39D0C7"/>
<rect x="200.387" y="373.682" width="8.49632" height="279.308" transform="rotate(-45 200.387 373.682)" fill="#39D0C7"/>
<rect x="213.031" y="362.934" width="8.49632" height="279.308" transform="rotate(-45 213.031 362.934)" fill="#39D0C7"/>
<rect x="222.703" y="348.962" width="8.49632" height="279.308" transform="rotate(-45 222.703 348.962)" fill="#39D0C7"/>
<rect x="229.152" y="331.767" width="8.49632" height="279.308" transform="rotate(-45 229.152 331.767)" fill="#39D0C7"/>
<rect x="239.898" y="316.72" width="8.49632" height="279.308" transform="rotate(-45 239.898 316.72)" fill="#39D0C7"/>
<rect x="249.57" y="303.823" width="8.49632" height="279.308" transform="rotate(-45 249.57 303.823)" fill="#39D0C7"/>
<rect x="263.543" y="293.076" width="8.49632" height="279.308" transform="rotate(-45 263.543 293.076)" fill="#39D0C7"/>
<rect x="279.664" y="283.403" width="8.49632" height="279.308" transform="rotate(-45 279.664 283.403)" fill="#39D0C7"/>
<rect x="292.562" y="271.582" width="8.49632" height="279.308" transform="rotate(-45 292.562 271.582)" fill="#39D0C7"/>
</g>
<rect x="183.781" y="442.792" width="150.463" height="150.463" transform="rotate(-90 183.781 442.792)" fill="#726ECE"/>
<rect x="334.242" y="300.927" width="150.463" height="150.463" transform="rotate(-90 334.242 300.927)" fill="#E94545"/>
<rect x="189.152" y="150.464" width="150.463" height="150.463" transform="rotate(-90 189.152 150.464)" fill="#E94545"/>
<rect x="38.6914" y="593.256" width="150.463" height="150.463" transform="rotate(-90 38.6914 593.256)" fill="#15DFBB"/>
<circle cx="264.387" cy="75.2317" r="24.719" transform="rotate(-90 264.387 75.2317)" fill="white"/>
<circle cx="389.592" cy="59.6479" r="9.13528" transform="rotate(-90 389.592 59.6479)" fill="#79FFF7"/>
<circle cx="389.592" cy="9.13523" r="9.13528" transform="rotate(-90 389.592 9.13523)" fill="#79FFF7"/>
<circle opacity="0.5" cx="329.946" cy="292.329" r="50.5127" transform="rotate(-90 329.946 292.329)" fill="white"/>
</svg>
