<svg width="345" height="120" viewBox="0 0 345 120" fill="none" xmlns="http://www.w3.org/2000/svg">
<path d="M138.716 84.342C138.753 84.4167 138.772 84.496 138.772 84.58C138.772 84.72 138.716 84.8367 138.604 84.93C138.501 85.0233 138.375 85.07 138.226 85.07C137.993 85.07 137.829 84.958 137.736 84.734L136.742 82.466H131.464L130.456 84.734C130.363 84.958 130.199 85.07 129.966 85.07C129.817 85.07 129.686 85.0233 129.574 84.93C129.462 84.8273 129.406 84.706 129.406 84.566C129.406 84.4913 129.425 84.4167 129.462 84.342L133.466 75.438C133.522 75.3073 133.606 75.2093 133.718 75.144C133.83 75.0787 133.951 75.046 134.082 75.046C134.222 75.046 134.348 75.0833 134.46 75.158C134.572 75.2233 134.656 75.3167 134.712 75.438L138.716 84.342ZM136.322 81.514L134.096 76.488L131.884 81.514H136.322ZM145.696 75.06C145.873 75.06 146.013 75.1113 146.116 75.214C146.219 75.3167 146.27 75.4473 146.27 75.606V84.51C146.27 84.678 146.219 84.8133 146.116 84.916C146.013 85.0187 145.873 85.07 145.696 85.07C145.519 85.07 145.379 85.0187 145.276 84.916C145.183 84.8133 145.136 84.678 145.136 84.51V83.754C144.931 84.1833 144.627 84.5147 144.226 84.748C143.834 84.9813 143.372 85.098 142.84 85.098C142.243 85.098 141.715 84.9487 141.258 84.65C140.801 84.3513 140.446 83.936 140.194 83.404C139.942 82.8627 139.816 82.2373 139.816 81.528C139.816 80.828 139.942 80.212 140.194 79.68C140.446 79.148 140.801 78.7373 141.258 78.448C141.715 78.1587 142.243 78.014 142.84 78.014C143.372 78.014 143.834 78.1307 144.226 78.364C144.627 78.5973 144.931 78.9287 145.136 79.358V75.606C145.136 75.438 145.183 75.3073 145.276 75.214C145.379 75.1113 145.519 75.06 145.696 75.06ZM143.064 84.16C143.727 84.16 144.235 83.936 144.59 83.488C144.954 83.0307 145.136 82.3867 145.136 81.556C145.136 80.7253 144.954 80.086 144.59 79.638C144.235 79.19 143.727 78.966 143.064 78.966C142.401 78.966 141.883 79.19 141.51 79.638C141.146 80.086 140.964 80.716 140.964 81.528C140.964 82.3587 141.146 83.0073 141.51 83.474C141.883 83.9313 142.401 84.16 143.064 84.16ZM155.958 78.014C157.47 78.014 158.226 78.9147 158.226 80.716V84.51C158.226 84.6873 158.175 84.8273 158.072 84.93C157.97 85.0233 157.834 85.07 157.666 85.07C157.498 85.07 157.358 85.0233 157.246 84.93C157.144 84.8273 157.092 84.6873 157.092 84.51V80.744C157.092 80.1187 156.98 79.666 156.756 79.386C156.532 79.106 156.182 78.966 155.706 78.966C155.137 78.966 154.689 79.1573 154.362 79.54C154.036 79.9227 153.872 80.4407 153.872 81.094V84.51C153.872 84.6873 153.816 84.8273 153.704 84.93C153.602 85.0233 153.466 85.07 153.298 85.07C153.13 85.07 152.995 85.0233 152.892 84.93C152.79 84.8273 152.738 84.6873 152.738 84.51V80.744C152.738 80.1187 152.626 79.666 152.402 79.386C152.178 79.106 151.824 78.966 151.338 78.966C150.778 78.966 150.33 79.1573 149.994 79.54C149.668 79.9227 149.504 80.4407 149.504 81.094V84.51C149.504 84.6873 149.453 84.8273 149.35 84.93C149.248 85.0233 149.112 85.07 148.944 85.07C148.776 85.07 148.636 85.0233 148.524 84.93C148.422 84.8273 148.37 84.6873 148.37 84.51V78.602C148.37 78.434 148.422 78.2987 148.524 78.196C148.636 78.0933 148.776 78.042 148.944 78.042C149.103 78.042 149.234 78.0933 149.336 78.196C149.439 78.2893 149.49 78.42 149.49 78.588V79.26C149.696 78.8587 149.98 78.5507 150.344 78.336C150.708 78.1213 151.128 78.014 151.604 78.014C152.668 78.014 153.364 78.462 153.69 79.358C153.886 78.9473 154.185 78.6207 154.586 78.378C154.988 78.1353 155.445 78.014 155.958 78.014ZM160.866 85.07C160.698 85.07 160.558 85.0233 160.446 84.93C160.344 84.8273 160.292 84.6873 160.292 84.51V78.602C160.292 78.4247 160.344 78.2893 160.446 78.196C160.558 78.0933 160.698 78.042 160.866 78.042C161.034 78.042 161.17 78.0933 161.272 78.196C161.375 78.2893 161.426 78.4247 161.426 78.602V84.51C161.426 84.6967 161.375 84.8367 161.272 84.93C161.17 85.0233 161.034 85.07 160.866 85.07ZM160.866 76.572C160.642 76.572 160.46 76.5067 160.32 76.376C160.18 76.2453 160.11 76.0727 160.11 75.858C160.11 75.6527 160.18 75.4847 160.32 75.354C160.46 75.2233 160.642 75.158 160.866 75.158C161.09 75.158 161.272 75.2233 161.412 75.354C161.552 75.4847 161.622 75.6527 161.622 75.858C161.622 76.0727 161.552 76.2453 161.412 76.376C161.272 76.5067 161.09 76.572 160.866 76.572ZM166.976 78.014C168.609 78.014 169.426 78.9147 169.426 80.716V84.51C169.426 84.6873 169.375 84.8273 169.272 84.93C169.179 85.0233 169.043 85.07 168.866 85.07C168.689 85.07 168.549 85.0233 168.446 84.93C168.343 84.8273 168.292 84.6873 168.292 84.51V80.786C168.292 80.1513 168.166 79.6893 167.914 79.4C167.671 79.1107 167.279 78.966 166.738 78.966C166.113 78.966 165.613 79.1573 165.24 79.54C164.867 79.9227 164.68 80.4407 164.68 81.094V84.51C164.68 84.6873 164.629 84.8273 164.526 84.93C164.433 85.0233 164.297 85.07 164.12 85.07C163.943 85.07 163.803 85.0233 163.7 84.93C163.597 84.8273 163.546 84.6873 163.546 84.51V78.602C163.546 78.434 163.597 78.2987 163.7 78.196C163.803 78.0933 163.943 78.042 164.12 78.042C164.288 78.042 164.419 78.0933 164.512 78.196C164.615 78.2987 164.666 78.4293 164.666 78.588V79.302C164.89 78.882 165.203 78.5647 165.604 78.35C166.005 78.126 166.463 78.014 166.976 78.014Z" fill="#717579"/>
<circle cx="66" cy="48" r="14" fill="#E94545"/>
<circle cx="66" cy="76" r="14" fill="#38A962"/>
<circle cx="94" cy="48" r="14" fill="#39D0C7"/>
<circle cx="94" cy="76" r="14" fill="#726ECE"/>
<path d="M131.646 47.57C131.646 46.88 131.761 46.38 131.991 46.07C132.221 45.75 132.661 45.59 133.311 45.59H134.481L134.676 45.8V61.37C134.676 61.77 134.771 62.09 134.961 62.33C135.151 62.56 135.471 62.675 135.921 62.675H137.991C138.151 63.145 138.231 63.665 138.231 64.235C138.231 64.345 138.226 64.46 138.216 64.58C138.216 64.7 138.201 64.81 138.171 64.91C137.671 64.97 137.136 65.02 136.566 65.06C135.996 65.11 135.416 65.135 134.826 65.135C133.806 65.135 133.021 64.88 132.471 64.37C131.921 63.85 131.646 63.075 131.646 62.045V47.57ZM138.381 50.165C138.481 50.535 138.531 50.91 138.531 51.29C138.531 51.71 138.481 52.095 138.381 52.445L133.476 52.385L129.441 52.445C129.361 52.075 129.321 51.69 129.321 51.29C129.321 50.93 129.361 50.555 129.441 50.165L133.521 50.225L138.381 50.165ZM141.775 58.58V56.33H149.05V55.94C149.05 55.24 148.95 54.6 148.75 54.02C148.56 53.43 148.245 52.96 147.805 52.61C147.375 52.26 146.8 52.085 146.08 52.085C145.06 52.085 144.295 52.515 143.785 53.375C143.275 54.235 143.02 55.42 143.02 56.93V57.875C143.02 58.815 143.115 59.665 143.305 60.425C143.505 61.175 143.855 61.77 144.355 62.21C144.855 62.64 145.565 62.855 146.485 62.855C147.235 62.855 147.96 62.75 148.66 62.54C149.36 62.32 150.025 62.045 150.655 61.715C150.915 61.965 151.13 62.28 151.3 62.66C151.48 63.03 151.59 63.375 151.63 63.695C150.92 64.215 150.065 64.63 149.065 64.94C148.075 65.24 147.055 65.39 146.005 65.39C144.815 65.39 143.82 65.18 143.02 64.76C142.23 64.34 141.6 63.765 141.13 63.035C140.67 62.295 140.335 61.46 140.125 60.53C139.925 59.6 139.825 58.63 139.825 57.62C139.825 56.13 140.055 54.795 140.515 53.615C140.985 52.435 141.685 51.505 142.615 50.825C143.545 50.145 144.7 49.805 146.08 49.805C147.38 49.805 148.47 50.09 149.35 50.66C150.24 51.23 150.91 52 151.36 52.97C151.81 53.93 152.035 55.005 152.035 56.195C152.035 56.675 152.015 57.09 151.975 57.44C151.945 57.78 151.89 58.16 151.81 58.58H141.775ZM155.929 47.57C155.929 46.88 156.044 46.38 156.274 46.07C156.504 45.75 156.944 45.59 157.594 45.59H158.764L158.959 45.8V61.37C158.959 61.77 159.054 62.09 159.244 62.33C159.434 62.56 159.754 62.675 160.204 62.675H162.274C162.434 63.145 162.514 63.665 162.514 64.235C162.514 64.345 162.509 64.46 162.499 64.58C162.499 64.7 162.484 64.81 162.454 64.91C161.954 64.97 161.419 65.02 160.849 65.06C160.279 65.11 159.699 65.135 159.109 65.135C158.089 65.135 157.304 64.88 156.754 64.37C156.204 63.85 155.929 63.075 155.929 62.045V47.57ZM162.664 50.165C162.764 50.535 162.814 50.91 162.814 51.29C162.814 51.71 162.764 52.095 162.664 52.445L157.759 52.385L153.724 52.445C153.644 52.075 153.604 51.69 153.604 51.29C153.604 50.93 153.644 50.555 153.724 50.165L157.804 50.225L162.664 50.165ZM173.957 50.15C173.957 50.57 173.897 51.06 173.777 51.62C173.657 52.17 173.462 52.655 173.192 53.075C173.002 53.025 172.802 52.995 172.592 52.985C172.382 52.965 172.177 52.95 171.977 52.94C171.407 52.94 170.907 53.06 170.477 53.3C170.057 53.53 169.697 53.835 169.397 54.215C169.107 54.585 168.857 54.995 168.647 55.445C168.437 55.895 168.267 56.335 168.137 56.765L167.687 56.195C167.707 55.485 167.802 54.77 167.972 54.05C168.142 53.32 168.402 52.65 168.752 52.04C169.112 51.42 169.587 50.925 170.177 50.555C170.777 50.175 171.502 49.985 172.352 49.985C172.622 49.985 172.882 50 173.132 50.03C173.392 50.05 173.667 50.09 173.957 50.15ZM164.552 51.62C164.622 51.35 164.767 51.05 164.987 50.72C165.207 50.38 165.437 50.13 165.677 49.97C166.677 50.19 167.422 50.695 167.912 51.485C168.402 52.265 168.682 53.25 168.752 54.44V65C168.542 65.04 168.302 65.07 168.032 65.09C167.762 65.11 167.487 65.12 167.207 65.12C166.927 65.12 166.652 65.11 166.382 65.09C166.112 65.07 165.872 65.04 165.662 65V54.71C165.662 53.91 165.542 53.255 165.302 52.745C165.062 52.235 164.812 51.86 164.552 51.62ZM174.697 60.98C174.697 59.83 174.947 58.89 175.447 58.16C175.957 57.42 176.642 56.875 177.502 56.525C178.372 56.175 179.352 56 180.442 56C180.992 56 181.622 56.025 182.332 56.075C183.042 56.125 183.702 56.22 184.312 56.36V58.445C183.772 58.315 183.167 58.235 182.497 58.205C181.837 58.165 181.217 58.145 180.637 58.145C179.727 58.145 179.022 58.38 178.522 58.85C178.022 59.31 177.772 59.945 177.772 60.755C177.772 61.365 177.947 61.885 178.297 62.315C178.647 62.735 179.147 62.945 179.797 62.945C180.527 62.945 181.297 62.69 182.107 62.18C182.917 61.67 183.602 60.92 184.162 59.93L184.642 62.3C184.282 62.72 183.837 63.17 183.307 63.65C182.777 64.13 182.162 64.54 181.462 64.88C180.772 65.22 179.987 65.39 179.107 65.39C178.117 65.39 177.292 65.17 176.632 64.73C175.982 64.29 175.497 63.735 175.177 63.065C174.857 62.385 174.697 61.69 174.697 60.98ZM187.207 63.62C187.137 63.9 186.987 64.2 186.757 64.52C186.537 64.83 186.302 65.065 186.052 65.225C185.422 65.095 184.912 64.86 184.522 64.52C184.132 64.18 183.842 63.775 183.652 63.305C183.462 62.825 183.347 62.32 183.307 61.79V55.025C183.307 54.085 183.092 53.41 182.662 53C182.242 52.58 181.642 52.37 180.862 52.37C180.112 52.37 179.337 52.485 178.537 52.715C177.737 52.945 176.937 53.215 176.137 53.525C175.897 53.275 175.692 52.935 175.522 52.505C175.362 52.065 175.272 51.645 175.252 51.245C175.812 51.005 176.442 50.78 177.142 50.57C177.852 50.36 178.582 50.195 179.332 50.075C180.082 49.945 180.797 49.88 181.477 49.88C182.467 49.88 183.327 50.06 184.057 50.42C184.787 50.78 185.352 51.33 185.752 52.07C186.162 52.81 186.367 53.755 186.367 54.905V61.055C186.367 61.615 186.422 62.11 186.532 62.54C186.642 62.96 186.867 63.32 187.207 63.62ZM192.927 54.74C192.927 55.65 192.997 56.58 193.137 57.53C193.277 58.47 193.522 59.345 193.872 60.155C194.232 60.955 194.742 61.605 195.402 62.105C196.062 62.595 196.917 62.84 197.967 62.84C199.017 62.84 199.867 62.595 200.517 62.105C201.177 61.605 201.682 60.955 202.032 60.155C202.392 59.345 202.637 58.47 202.767 57.53C202.907 56.58 202.977 55.65 202.977 54.74C202.977 53.83 202.907 52.905 202.767 51.965C202.637 51.025 202.392 50.155 202.032 49.355C201.682 48.545 201.177 47.895 200.517 47.405C199.867 46.915 199.017 46.67 197.967 46.67C196.917 46.67 196.062 46.915 195.402 47.405C194.742 47.895 194.232 48.545 193.872 49.355C193.522 50.155 193.277 51.025 193.137 51.965C192.997 52.905 192.927 53.83 192.927 54.74ZM189.582 54.74C189.582 52.72 189.882 50.91 190.482 49.31C191.092 47.71 192.017 46.445 193.257 45.515C194.497 44.585 196.067 44.12 197.967 44.12C199.877 44.12 201.452 44.59 202.692 45.53C203.932 46.46 204.852 47.725 205.452 49.325C206.052 50.925 206.352 52.73 206.352 54.74C206.352 56.77 206.047 58.59 205.437 60.2C204.827 61.8 203.902 63.065 202.662 63.995C201.432 64.925 199.867 65.39 197.967 65.39C196.057 65.39 194.482 64.92 193.242 63.98C192.002 63.04 191.082 61.77 190.482 60.17C189.882 58.56 189.582 56.75 189.582 54.74ZM211.033 50.06C211.683 50.06 212.133 50.255 212.383 50.645C212.643 51.035 212.773 51.575 212.773 52.265V65C212.573 65.04 212.338 65.07 212.068 65.09C211.798 65.11 211.523 65.12 211.243 65.12C210.963 65.12 210.688 65.11 210.418 65.09C210.148 65.07 209.903 65.04 209.683 65V50.255L209.878 50.06H211.033ZM221.503 61.835C221.503 62.355 221.538 62.85 221.608 63.32C221.688 63.78 221.823 64.185 222.013 64.535C221.783 64.725 221.493 64.88 221.143 65C220.793 65.13 220.433 65.195 220.063 65.195C219.453 65.195 219.023 65.03 218.773 64.7C218.533 64.37 218.413 63.88 218.413 63.23V55.595C218.413 54.585 218.283 53.855 218.023 53.405C217.763 52.945 217.268 52.715 216.538 52.715C216.038 52.715 215.493 52.835 214.903 53.075C214.323 53.315 213.773 53.66 213.253 54.11C212.733 54.55 212.313 55.065 211.993 55.655V52.685C212.663 51.915 213.483 51.265 214.453 50.735C215.423 50.195 216.448 49.925 217.528 49.925C218.468 49.925 219.228 50.145 219.808 50.585C220.388 51.015 220.813 51.6 221.083 52.34C221.363 53.08 221.503 53.915 221.503 54.845V61.835ZM226.49 58.58V56.33H233.765V55.94C233.765 55.24 233.665 54.6 233.465 54.02C233.275 53.43 232.96 52.96 232.52 52.61C232.09 52.26 231.515 52.085 230.795 52.085C229.775 52.085 229.01 52.515 228.5 53.375C227.99 54.235 227.735 55.42 227.735 56.93V57.875C227.735 58.815 227.83 59.665 228.02 60.425C228.22 61.175 228.57 61.77 229.07 62.21C229.57 62.64 230.28 62.855 231.2 62.855C231.95 62.855 232.675 62.75 233.375 62.54C234.075 62.32 234.74 62.045 235.37 61.715C235.63 61.965 235.845 62.28 236.015 62.66C236.195 63.03 236.305 63.375 236.345 63.695C235.635 64.215 234.78 64.63 233.78 64.94C232.79 65.24 231.77 65.39 230.72 65.39C229.53 65.39 228.535 65.18 227.735 64.76C226.945 64.34 226.315 63.765 225.845 63.035C225.385 62.295 225.05 61.46 224.84 60.53C224.64 59.6 224.54 58.63 224.54 57.62C224.54 56.13 224.77 54.795 225.23 53.615C225.7 52.435 226.4 51.505 227.33 50.825C228.26 50.145 229.415 49.805 230.795 49.805C232.095 49.805 233.185 50.09 234.065 50.66C234.955 51.23 235.625 52 236.075 52.97C236.525 53.93 236.75 55.005 236.75 56.195C236.75 56.675 236.73 57.09 236.69 57.44C236.66 57.78 236.605 58.16 236.525 58.58H226.49Z" fill="black"/>
</svg>
